<svg viewBox="0 0 100 125" xmlns="http://www.w3.org/2000/svg"><path d="m11.41 7.9c1.17-.56 2.29-1.28 2.34-2.23s-1.6-1.82-3.67-1a5.15 5.15 0 0 0 -.54.23 9.78 9.78 0 0 0 -4.54 4.21 9.25 9.25 0 0 0 -1.05 3 10.84 10.84 0 0 0 -.16 1.59v1.29l-.27 10.39-.39 20.72-.33 20.72-.15 10.37-.06 5.18v2.59a12.88 12.88 0 0 0 .28 3.32 11.31 11.31 0 0 0 10.44 8.72l10.5.11 20.73.15 41.56.1a11.7 11.7 0 0 0 11-8.86 10.78 10.78 0 0 0 .31-1.86v-1-3.19-5.19l-.09-20.73-.32-41.45v-1.3a12.17 12.17 0 0 0 -.2-1.78 10.58 10.58 0 0 0 -1.12-3.42 11.08 11.08 0 0 0 -5.09-4.9c-2-1.12-5-1.12-6.4-1l-5.19.06-20.73.34-41.43.92c-1.72 0-3.08.79-3.08 1.72s1.36 1.69 3.08 1.72h.49l41.43.86 20.73.34 5.18.08h1.22a5.47 5.47 0 0 1 .8.1 5.18 5.18 0 0 1 1.47.58 5 5 0 0 1 2 2.35c.42 1 .37 1.82.34 3.83l-.18 20.13a477.83 477.83 0 0 0 -82.18.12l-.14-10.92-.23-10.36a6.28 6.28 0 0 1 3.64-6.65zm78.92 31.75-.15 17.35-.1 20.73v7.77a4.79 4.79 0 0 1 -.2 1.45 4.33 4.33 0 0 1 -4.34 3l-41.46.12-20.73.15-10 .07a4.73 4.73 0 0 1 -4.23-3.79l-.74-40.87-.12-6.1a477.57 477.57 0 0 0 82.07.12z"/><circle cx="21.76" cy="21.67" r="4"/><circle cx="37.76" cy="21.67" r="4"/><circle cx="53.76" cy="21.67" r="4"/><path d="m31.23 78.7a72.41 72.41 0 0 0 13.15-10.41 3.7 3.7 0 0 0 0-5.23 72 72 0 0 0 -13.18-10.39c-.15-.1-.78.34-1.44 1s-1.1 1.29-1 1.44a71.65 71.65 0 0 0 8 10.51 71.75 71.75 0 0 0 -8.03 10.58c-.09.16.37.81 1 1.47s1.34 1.11 1.5 1.03z"/><path d="m50 79.4a36.4 36.4 0 0 0 23.53 0 4.11 4.11 0 0 0 .22-1.77 4.11 4.11 0 0 0 -.22-1.77 36.33 36.33 0 0 0 -23.53.14 3.74 3.74 0 0 0 -.22 1.72 3.74 3.74 0 0 0 .22 1.67z"/><g font-family="'Helvetica Neue', Helvetica, Arial-Unicode, Arial, Sans-serif" font-size="5" font-weight="bold"></g></svg>